<svg width="28" height="24" viewBox="0 0 28 24" fill="none" xmlns="http://www.w3.org/2000/svg">
<path d="M4.97208 1.28577H1.45807C1.05137 1.28577 0.72168 1.62213 0.72168 2.03704V5.08167C0.72168 5.49658 1.05137 5.83294 1.45807 5.83294H4.97208C5.37878 5.83294 5.70847 5.49658 5.70847 5.08167V2.03704C5.70847 1.62213 5.37878 1.28577 4.97208 1.28577Z" fill="#200020"/>
<path d="M26.3794 1.28577H23.3563C22.9429 1.28577 22.6199 1.62846 22.6199 2.03704V14.3605C22.6199 14.6109 22.2969 14.7032 22.1807 14.4791L15.1527 1.61528C15.0364 1.4044 14.8297 1.28577 14.5842 1.28577H9.55866C9.14524 1.28577 8.82227 1.62846 8.82227 2.03704V21.7282C8.82227 22.15 9.15816 22.4795 9.55866 22.4795H12.5817C12.9952 22.4795 13.3181 22.1368 13.3181 21.7282V9.03573C13.3181 8.7853 13.6411 8.69304 13.7574 8.9171L20.9792 22.1632C21.0955 22.3741 21.3022 22.4927 21.5476 22.4927H26.3536C26.767 22.4927 27.09 22.15 27.09 21.7414V2.03704C27.09 1.61528 26.7541 1.28577 26.3536 1.28577H26.3794Z" fill="#200020"/>
</svg>
